<svg width="60" height="60" viewBox="0 0 60 60" fill="none" xmlns="http://www.w3.org/2000/svg">
<ellipse opacity="0.11" cx="30" cy="55.5" rx="30" ry="4.5" fill="#0F75BC"/>
<path d="M27.5 37.5H32.5C33.8261 37.5 35.0979 36.9732 36.0355 36.0355C36.9732 35.0979 37.5 33.8261 37.5 32.5C37.5 31.1739 36.9732 29.9021 36.0355 28.9645C35.0979 28.0268 33.8261 27.5 32.5 27.5H25C23.5 27.5 22.25 28 21.5 29L7.5 42.5" stroke="#0F75BC" stroke-width="2" stroke-linecap="round" stroke-linejoin="round"/>
<path d="M17.5 52.4999L21.5 48.9999C22.25 47.9999 23.5 47.4999 25 47.4999H35C37.75 47.4999 40.25 46.4999 42 44.4999L53.5 33.4999C54.4647 32.5883 55.0278 31.3307 55.0653 30.0039C55.1028 28.677 54.6117 27.3897 53.7 26.4249C52.7883 25.4602 51.5307 24.8972 50.2039 24.8597C48.8771 24.8222 47.5897 25.3133 46.625 26.2249L36.125 35.9749" stroke="#0F75BC" stroke-width="2" stroke-linecap="round" stroke-linejoin="round"/>
<path d="M5 40L20 55" stroke="#0F75BC" stroke-width="2" stroke-linecap="round" stroke-linejoin="round"/>
<path d="M40 29.75C44.0041 29.75 47.25 26.5041 47.25 22.5C47.25 18.4959 44.0041 15.25 40 15.25C35.9959 15.25 32.75 18.4959 32.75 22.5C32.75 26.5041 35.9959 29.75 40 29.75Z" stroke="#0F75BC" stroke-width="2" stroke-linecap="round" stroke-linejoin="round"/>
<path d="M15 20C19.1421 20 22.5 16.6421 22.5 12.5C22.5 8.35786 19.1421 5 15 5C10.8579 5 7.5 8.35786 7.5 12.5C7.5 16.6421 10.8579 20 15 20Z" stroke="#0F75BC" stroke-width="2" stroke-linecap="round" stroke-linejoin="round"/>
</svg>
